<?xml version="1.0" standalone="no"?>
<!DOCTYPE svg PUBLIC "-//W3C//DTD SVG 20010904//EN" "http://www.w3.org/TR/2001/REC-SVG-20010904/DTD/svg10.dtd">
<svg version="1.0" xmlns="http://www.w3.org/2000/svg"
 width="300.000000pt" height="300.000000pt" viewBox="0 0 300.000000 300.000000"
 preserveAspectRatio="xMidYMid meet">
    <metadata>
    Created by potrace 1.11, written by Peter Selinger 2001-2013
    </metadata>
    <g transform="translate(0.000000,300.000000) scale(0.100000,-0.100000)" fill="#BBBBBB" stroke="none">
        <path d="M1339 2878 c-255 -33 -463 -110 -647 -240 -81 -58 -203 -164 -230
            -201 -8 -10 -25 -30 -39 -45 -13 -14 -38 -48 -55 -74 -17 -27 -35 -48 -38 -48
            -4 0 -17 -21 -29 -47 -12 -27 -28 -59 -36 -73 -33 -58 -64 -132 -71 -165 -3
            -19 -10 -35 -14 -35 -5 0 -11 -19 -15 -42 -3 -24 -10 -52 -14 -63 -31 -73 -49
            -312 -36 -465 7 -85 39 -251 54 -279 6 -10 12 -30 15 -45 5 -27 32 -93 63
            -151 51 -98 77 -142 94 -161 10 -11 19 -24 19 -29 0 -13 89 -116 164 -188 94
            -90 106 -100 141 -123 17 -10 49 -33 73 -51 24 -18 49 -33 56 -33 7 0 23 -9
            36 -20 13 -11 28 -20 33 -20 6 0 33 -11 61 -24 29 -14 65 -28 81 -32 17 -4 35
            -11 41 -15 6 -5 31 -13 55 -18 24 -6 78 -17 119 -26 91 -20 379 -29 453 -14
            29 6 77 15 107 21 30 6 78 17 105 26 28 9 59 17 69 19 10 2 35 12 55 22 156
            79 195 101 266 150 138 96 344 319 388 420 6 14 14 28 18 31 20 16 109 238
            116 291 3 21 9 39 13 39 9 0 14 34 33 215 19 184 0 390 -48 528 -8 23 -15 48
            -15 55 0 25 -101 227 -148 297 -92 138 -201 253 -337 356 -72 55 -284 169
            -314 169 -9 0 -21 4 -27 9 -12 12 -117 42 -169 48 -22 3 -44 9 -50 13 -23 17
            -302 30 -396 18z m265 -178 c5 -5 23 -10 40 -10 32 0 137 -32 201 -61 22 -10
            52 -21 68 -24 15 -4 27 -11 27 -15 0 -4 17 -15 38 -23 21 -9 52 -26 68 -39 16
            -13 43 -32 59 -43 77 -48 234 -210 297 -307 81 -124 147 -269 171 -378 9 -36
            21 -90 28 -120 16 -68 17 -383 2 -402 -6 -7 -13 -31 -16 -53 -6 -52 -33 -145
            -52 -181 -8 -16 -15 -33 -15 -37 0 -5 -14 -38 -32 -75 -91 -188 -251 -371
            -429 -489 -91 -60 -287 -148 -352 -158 -15 -2 -32 -7 -37 -10 -39 -24 -311
            -42 -415 -26 -103 15 -189 33 -195 40 -3 4 -24 13 -48 19 -46 14 -140 61 -212
            107 -134 85 -264 206 -353 328 -50 69 -117 173 -117 183 0 2 -13 32 -29 67
            -32 69 -65 154 -68 177 -1 8 -11 60 -23 115 -38 179 -29 425 20 540 5 11 14
            38 20 60 7 22 21 58 31 81 10 22 19 45 19 51 0 7 6 18 12 25 7 8 26 38 42 68
            16 30 32 57 36 60 4 3 18 23 32 46 42 66 208 227 293 284 139 91 325 170 464
            197 117 22 404 24 425 3z"/>
    </g>
</svg>
