<?xml version="1.0" standalone="no"?>
<!DOCTYPE svg PUBLIC "-//W3C//DTD SVG 20010904//EN" "http://www.w3.org/TR/2001/REC-SVG-20010904/DTD/svg10.dtd">
<svg version="1.0" xmlns="http://www.w3.org/2000/svg"
 width="300.000000pt" height="300.000000pt" viewBox="0 0 300.000000 300.000000"
 preserveAspectRatio="xMidYMid meet">
    <metadata>
    Created by potrace 1.11, written by Peter Selinger 2001-2013
    </metadata>
    <g transform="translate(0.000000,300.000000) scale(0.100000,-0.100000)" fill="#DDDDDD" stroke="none">
        <path d="M2849 2972 c-15 -9 -134 -114 -265 -232 -132 -118 -320 -286 -418
            -375 -99 -88 -306 -274 -460 -413 l-281 -253 -625 626 c-344 344 -632 630
            -640 635 -47 30 -120 -12 -120 -69 0 -30 80 -113 1048 -1092 200 -203 213
            -217 195 -230 -24 -17 -1158 -1034 -1183 -1061 -9 -10 -30 -42 -46 -71 -38
            -69 -41 -178 -6 -244 35 -66 78 -110 140 -140 49 -24 69 -28 142 -28 121 0
            177 29 269 138 38 45 117 136 174 202 58 66 103 124 100 129 -3 5 -2 6 3 3 6
            -3 167 172 358 389 191 217 351 394 355 394 6 0 181 -175 910 -912 320 -324
            346 -348 378 -348 25 0 43 8 64 29 33 33 37 65 13 101 -9 14 -295 304 -635
            645 l-619 620 113 126 c61 69 324 366 582 659 259 294 500 567 538 607 77 84
            83 108 38 154 -34 34 -82 39 -122 11z"/>
    </g>
</svg>
