<?xml version="1.0" standalone="no"?>
<!DOCTYPE svg PUBLIC "-//W3C//DTD SVG 20010904//EN"
 "http://www.w3.org/TR/2001/REC-SVG-20010904/DTD/svg10.dtd">
<svg version="1.0" xmlns="http://www.w3.org/2000/svg"
 width="300.000000pt" height="300.000000pt" viewBox="0 0 300.000000 300.000000"
 preserveAspectRatio="xMidYMid meet">
<metadata>
Created by potrace 1.11, written by Peter Selinger 2001-2013
</metadata>
<g transform="translate(0.000000,300.000000) scale(0.100000,-0.100000)"
fill="#000000" stroke="none">
<path d="M1467 2884 c-2 -2 -48 -5 -102 -7 -206 -9 -367 -57 -405 -120 -36
-58 -21 -176 28 -230 27 -30 88 -57 129 -57 22 0 55 10 78 25 86 52 102 58
180 70 247 36 464 -54 587 -245 73 -114 69 -266 -14 -425 -47 -91 -188 -208
-293 -244 -84 -29 -155 -97 -193 -184 -14 -32 -15 -204 -5 -656 6 -312 9 -331
48 -331 34 0 42 33 84 330 24 166 46 342 51 391 13 137 71 226 205 314 33 22
62 43 63 47 2 5 8 8 13 8 16 0 120 78 177 134 56 53 145 176 162 223 6 16 13
35 17 43 7 18 10 28 17 58 3 12 8 27 12 33 14 24 13 183 -1 248 -16 69 -22 85
-62 166 -76 150 -231 278 -408 335 -22 7 -40 11 -41 9 0 -2 -7 1 -15 8 -19 15
-134 41 -232 51 -42 5 -79 7 -80 6z"/>
<path d="M1439 381 c-21 -22 -29 -39 -29 -66 0 -51 44 -95 95 -95 51 0 95 44
95 95 0 51 -44 95 -95 95 -27 0 -44 -8 -66 -29z"/>
</g>
</svg>
