<?xml version="1.0" standalone="no"?>
<!DOCTYPE svg PUBLIC "-//W3C//DTD SVG 20010904//EN" "http://www.w3.org/TR/2001/REC-SVG-20010904/DTD/svg10.dtd">
<svg version="1.0" xmlns="http://www.w3.org/2000/svg"
 width="3230.000000pt" height="345.000000pt" viewBox="0 0 3230.000000 345.000000"
 preserveAspectRatio="xMidYMid meet">
    <metadata>
        Created by potrace 1.11, written by Peter Selinger 2001-2013
    </metadata>
    <g transform="translate(0.000000,345.000000) scale(0.100000,-0.100000)" fill="#AAAAAA" stroke="none">

        <!-- TIC TACS -->

        <!-- T -->
        <path d="M80 2392 c-88 -47 -92 -168 -7 -221 45 -28 92 -27 402 3 429 43 689
        66 692 62 3 -2 -7 -138 -21 -302 -14 -165 -37 -452 -51 -639 -14 -187 -37
        -477 -51 -645 -31 -382 -33 -494 -11 -537 64 -122 218 -105 259 29 15 48 16
        129 8 943 -5 490 -9 951 -10 1026 l0 135 118 12 c212 21 425 41 552 52 69 5
        196 18 284 27 161 17 183 25 156 58 -11 13 -155 15 -1149 15 -1083 0 -1138 -1
        -1171 -18z"/>

        <!-- I -->
        <path d="M2646 2431 c-11 -13 -26 -68 -42 -158 -13 -76 -35 -194 -49 -263 -13
        -69 -43 -228 -65 -355 -23 -126 -62 -340 -86 -475 -25 -135 -52 -283 -60 -330
        -8 -47 -25 -141 -38 -210 -56 -296 -61 -388 -23 -455 42 -75 152 -135 247
        -135 60 0 136 28 187 69 86 68 85 54 73 690 -33 1748 -28 1592 -52 1618 -26
        28 -69 30 -92 4z"/>

        <!-- C -->
        <path d="M4180 2503 c-379 -43 -749 -262 -948 -561 -101 -152 -178 -332 -207
        -485 -22 -116 -20 -377 4 -492 20 -94 85 -272 126 -340 33 -56 178 -220 241
        -275 121 -103 210 -152 369 -203 265 -84 644 -99 1015 -42 52 9 127 20 165 26
        91 14 232 61 319 107 71 37 186 134 186 157 0 21 -38 48 -62 43 -13 -3 -106
        -31 -208 -62 -102 -32 -214 -60 -250 -63 -36 -3 -72 -9 -81 -14 -26 -13 -219
        -24 -409 -23 -227 1 -371 25 -531 89 -320 128 -523 319 -610 573 -32 93 -41
        174 -39 349 1 44 52 199 91 273 51 98 124 194 189 249 188 159 487 252 678
        212 129 -27 212 -54 302 -99 78 -39 109 -62 182 -135 111 -111 153 -132 263
        -132 187 1 318 124 319 300 1 110 -7 139 -53 194 -78 92 -384 262 -564 311
        -149 41 -349 59 -487 43z"/>

        <!-- T -->
        <path d="M5590 2422 c-88 -47 -92 -168 -7 -221 45 -28 92 -27 402 3 429 43
        689 66 692 62 3 -2 -7 -138 -21 -302 -14 -165 -37 -452 -51 -639 -14 -187 -37
        -477 -51 -645 -31 -382 -33 -494 -11 -537 64 -122 218 -105 259 29 15 48 16
        129 8 943 -5 490 -9 951 -10 1026 l0 135 118 12 c212 21 425 41 552 52 69 5
        196 18 284 27 161 17 183 25 156 58 -11 13 -155 15 -1149 15 -1083 0 -1138 -1
        -1171 -18z"/>

        <!-- A -->
        <path d="M8273 2498 c-13 -6 -32 -35 -47 -72 -29 -70 -143 -360 -191 -486 -18
        -47 -52 -132 -75 -190 -63 -159 -72 -184 -131 -337 l-53 -143 -36 0 c-87 -2
        -368 -29 -392 -39 -34 -13 -68 -66 -68 -106 0 -44 33 -91 73 -104 28 -10 63
        -8 178 8 79 11 145 19 147 16 3 -3 -57 -164 -177 -470 -28 -72 -51 -133 -51
        -137 0 -4 -11 -31 -24 -60 -49 -108 -56 -132 -56 -188 0 -122 101 -189 220
        -146 42 15 74 60 96 135 9 31 32 101 49 156 18 55 47 145 64 200 17 55 60 193
        96 307 36 114 65 214 65 222 0 10 15 17 43 21 23 3 123 17 221 30 98 14 197
        25 220 25 23 1 115 11 206 24 91 13 168 21 171 17 7 -7 83 -157 177 -351 33
        -69 106 -219 162 -335 56 -116 122 -251 146 -301 48 -100 91 -154 123 -154 28
        0 71 43 71 71 0 20 -112 281 -130 304 -15 19 -379 779 -375 784 3 2 28 8 56
        12 69 11 99 32 99 69 0 23 -7 35 -32 50 -29 17 -44 19 -115 13 l-83 -6 -44 94
        c-62 134 -274 568 -360 739 -40 80 -79 161 -86 180 -23 60 -74 138 -98 149
        -27 13 -30 13 -59 -1z m160 -503 c52 -110 146 -303 207 -429 61 -126 110 -230
        108 -231 -5 -4 -703 -52 -709 -49 -7 4 41 170 85 299 13 39 41 126 61 195 21
        69 55 177 77 241 21 65 38 122 38 127 0 23 21 65 29 56 4 -5 51 -99 104 -209z"/>

        <!--C-->
        <path d="M10590 2503 c-379 -43 -749 -262 -948 -561 -101 -152 -178 -332 -207
        -485 -22 -116 -20 -377 4 -492 20 -94 85 -272 126 -340 33 -56 178 -220 241
        -275 121 -103 210 -152 369 -203 265 -84 644 -99 1015 -42 52 9 127 20 165 26
        91 14 232 61 319 107 71 37 186 134 186 157 0 21 -38 48 -62 43 -13 -3 -106
        -31 -208 -62 -102 -32 -214 -60 -250 -63 -36 -3 -72 -9 -81 -14 -26 -13 -219
        -24 -409 -23 -227 1 -371 25 -531 89 -320 128 -523 319 -610 573 -32 93 -41
        174 -39 349 1 44 52 199 91 273 51 98 124 194 189 249 188 159 487 252 678
        212 129 -27 212 -54 302 -99 78 -39 109 -62 182 -135 111 -111 153 -132 263
        -132 187 1 318 124 319 300 1 110 -7 139 -53 194 -78 92 -384 262 -564 311
        -149 41 -349 59 -487 43z"/>

        <!-- S -->
        <path d="M12759 2476 c-2 -2 -26 -7 -54 -10 -168 -19 -331 -94 -444 -205 -86
        -84 -130 -161 -155 -271 -56 -238 62 -480 311 -640 43 -28 83 -50 90 -50 6 0
        13 -4 15 -9 6 -16 237 -90 346 -111 117 -23 116 -23 216 -70 168 -81 279 -261
        263 -430 -12 -136 -133 -267 -296 -323 -94 -32 -264 -31 -346 3 -139 57 -186
        90 -269 193 -47 58 -105 90 -161 89 -84 -2 -150 -51 -178 -133 -12 -36 -13
        -54 -4 -99 7 -30 19 -64 27 -76 33 -45 223 -157 330 -194 36 -12 74 -26 85
        -30 78 -33 342 -54 450 -36 22 3 56 9 75 12 54 9 148 42 230 82 55 26 95 56
        152 112 234 233 226 562 -20 806 -59 58 -133 114 -151 114 -6 0 -11 4 -11 8 0
        11 -115 64 -200 92 -36 12 -74 26 -85 30 -20 9 -131 34 -195 45 -152 27 -322
        149 -382 275 -73 153 -52 301 59 414 59 59 111 91 206 123 64 22 84 24 177 20
        120 -6 205 -30 287 -84 58 -38 126 -104 151 -146 22 -37 100 -77 151 -77 90 0
        165 65 186 160 9 41 -13 129 -39 156 -54 55 -278 184 -321 184 -7 0 -17 5 -20
        10 -3 6 -16 10 -29 10 -12 0 -26 4 -32 9 -18 17 -173 42 -291 46 -66 3 -122 3
        -124 1z"/>

        <!--&-->
        <path fill="#D1A644" d="M16105 3429 c-157 -9 -294 -26 -309 -38 -6 -4 -42 -19 -81 -31 -73
        -24 -241 -120 -312 -178 -51 -41 -107 -117 -141 -191 -23 -49 -24 -62 -18
        -143 5 -72 13 -103 43 -171 20 -45 48 -98 62 -117 13 -19 166 -177 339 -351
        l314 -316 -66 -37 c-37 -20 -69 -36 -72 -36 -3 0 -24 -13 -47 -30 -23 -16 -61
        -40 -84 -52 -104 -56 -209 -121 -252 -156 -25 -21 -91 -70 -146 -109 -137 -97
        -278 -249 -311 -334 -62 -163 -75 -213 -81 -304 -7 -112 9 -267 39 -370 24
        -81 94 -190 162 -252 56 -52 82 -66 166 -89 36 -9 67 -21 70 -25 7 -10 176
        -37 315 -50 156 -14 611 -4 704 16 89 20 115 27 121 35 3 3 33 17 68 29 34 13
        66 29 70 35 4 6 18 16 32 22 14 6 51 32 82 58 31 25 59 46 62 46 9 0 96 95
        152 165 30 39 82 116 116 172 33 57 63 103 67 103 3 0 142 -133 308 -295 327
        -319 333 -323 381 -272 26 27 27 36 8 71 -12 24 -297 328 -548 584 -66 67 -88
        96 -80 105 12 16 26 63 47 162 9 44 21 88 26 98 5 10 15 64 21 121 13 118 3
        174 -38 201 -50 33 -126 2 -138 -57 -31 -149 -39 -184 -45 -188 -4 -3 -17 -38
        -30 -77 -13 -40 -27 -73 -32 -73 -5 0 -35 28 -68 62 -32 35 -188 197 -345 361
        -157 164 -286 304 -286 311 0 8 15 19 33 27 17 7 59 30 93 51 34 21 65 38 71
        38 5 0 37 18 72 41 35 23 98 59 140 82 42 22 85 48 96 58 11 9 37 24 57 32 32
        14 59 32 177 122 91 70 241 262 269 346 18 54 15 205 -6 265 -52 149 -194 313
        -329 379 -43 21 -80 42 -83 46 -3 4 -34 15 -70 25 -36 9 -67 21 -70 24 -18 24
        -307 61 -460 58 -58 0 -163 -4 -235 -9z m420 -157 c22 -6 74 -18 114 -26 91
        -19 206 -62 246 -92 17 -12 49 -31 72 -43 23 -11 53 -32 66 -45 71 -71 137
        -180 137 -225 0 -12 4 -30 9 -40 6 -10 11 -55 13 -102 2 -70 -1 -92 -20 -130
        -24 -50 -158 -186 -208 -212 -17 -9 -34 -23 -37 -32 -4 -8 -11 -15 -17 -15 -6
        0 -32 -14 -57 -32 -53 -36 -128 -78 -193 -110 -129 -61 -190 -88 -202 -88 -7
        0 -51 -19 -98 -41 -142 -68 -124 -76 -353 158 -108 112 -197 209 -197 217 0 8
        -6 19 -13 23 -16 9 -94 124 -104 150 -3 10 -15 38 -26 63 -23 52 -41 210 -33
        286 6 53 42 132 79 173 36 38 129 106 167 121 19 7 40 17 45 21 9 6 71 16 200
        33 62 7 372 -1 410 -12z m190 -2081 l250 -251 -25 -47 c-28 -54 -79 -129 -127
        -189 -18 -23 -33 -44 -33 -48 0 -4 -17 -24 -37 -45 -21 -21 -54 -57 -73 -79
        -19 -23 -40 -42 -47 -42 -6 0 -23 -13 -36 -30 -14 -16 -28 -30 -32 -30 -8 0
        -61 -38 -103 -73 -18 -15 -38 -27 -43 -27 -6 0 -32 -11 -58 -23 -80 -41 -208
        -61 -381 -62 -193 0 -310 21 -423 77 -92 46 -135 85 -162 148 -10 25 -24 51
        -29 59 -38 50 -55 235 -32 346 16 82 68 196 105 236 12 13 21 27 21 33 0 14
        242 256 255 256 6 0 21 14 33 30 13 17 29 30 37 30 8 0 24 14 37 30 12 17 26
        30 30 30 5 0 54 36 109 80 54 44 104 80 109 80 6 0 18 8 28 18 9 9 28 22 42
        28 24 11 34 3 180 -137 85 -81 267 -260 405 -398z"/>

        <!-- Altoids -->

        <!-- A -->
        <path d="M20143 2528 c-13 -6 -32 -35 -47 -72 -29 -70 -143 -360 -191 -486
        -18 -47 -52 -132 -75 -190 -63 -159 -72 -184 -131 -337 l-53 -143 -36 0 c-87
        -2 -368 -29 -392 -39 -34 -13 -68 -66 -68 -106 0 -44 33 -91 73 -104 28 -10
        63 -8 178 8 79 11 145 19 147 16 3 -3 -57 -164 -177 -470 -28 -71 -51 -133
        -51 -137 0 -4 -11 -31 -24 -60 -49 -108 -56 -132 -56 -188 0 -122 101 -189
        220 -146 42 15 74 60 96 135 9 31 32 101 49 156 18 55 47 145 64 200 17 55 60
        193 96 307 36 114 65 214 65 222 0 10 15 17 43 21 23 3 123 17 221 30 98 14
        197 25 220 25 23 1 115 11 206 24 91 13 168 21 171 17 7 -7 83 -157 177 -351
        33 -69 106 -219 162 -335 56 -116 122 -251 146 -301 48 -100 91 -154 123 -154
        28 0 71 43 71 71 0 20 -112 281 -130 304 -15 19 -379 779 -375 784 3 2 28 8
        56 12 69 11 99 32 99 69 0 23 -7 35 -32 50 -29 17 -44 19 -115 13 l-83 -6 -44
        94 c-62 134 -274 568 -360 739 -40 80 -79 161 -86 180 -23 60 -74 138 -98 149
        -27 13 -30 13 -59 -1z m160 -503 c52 -110 146 -303 207 -429 61 -126 110 -230
        108 -231 -5 -4 -703 -52 -709 -49 -7 4 41 170 85 299 13 39 41 126 61 195 21
        69 55 177 77 241 21 65 38 122 38 127 0 23 21 65 29 56 4 -5 51 -99 104 -209z"/>

        <!-- L -->
        <path d="M21675 2540 c-42 -19 -77 -58 -85 -96 -16 -66 -52 -2212 -39 -2252 6
        -19 23 -48 37 -63 l25 -28 929 -1 930 0 29 31 c48 52 32 110 -39 140 -39 17
        -88 20 -401 29 -664 19 -1264 40 -1269 45 -3 2 3 139 12 302 9 164 16 342 16
        396 0 53 7 215 15 360 62 1094 61 1041 12 1096 -41 44 -121 64 -172 41z"/>

        <!-- T -->
        <path d="M22950 2462 c-88 -47 -92 -168 -7 -221 45 -28 92 -27 402 3 429 43
        689 66 692 62 3 -2 -7 -138 -21 -302 -14 -165 -37 -452 -51 -639 -14 -187 -37
        -477 -51 -645 -31 -382 -33 -494 -11 -537 64 -122 218 -105 259 29 15 48 16
        129 8 943 -5 490 -9 951 -10 1026 l0 135 118 12 c212 21 425 41 552 52 69 5
        196 18 284 27 161 17 183 25 156 58 -11 13 -155 15 -1149 15 -1083 0 -1138 -1
        -1171 -18z"/>

        <!-- O -->
        <path d="M26056 2484 c-139 -21 -332 -95 -436 -166 -19 -13 -42 -27 -50 -30
        -21 -8 -169 -137 -200 -173 -14 -16 -36 -41 -49 -55 -36 -38 -119 -167 -156
        -240 -136 -271 -158 -617 -59 -908 30 -87 107 -244 129 -262 8 -7 15 -18 15
        -24 0 -16 134 -172 195 -227 66 -60 196 -149 275 -189 260 -131 617 -157 896
        -64 87 29 265 116 284 139 7 8 18 15 24 15 14 0 171 134 206 175 14 16 36 41
        49 55 38 41 115 159 154 236 132 261 157 613 64 894 -53 158 -118 274 -229
        405 -89 105 -158 168 -269 243 -233 158 -544 223 -843 176z m444 -90 c174 -41
        306 -102 440 -202 124 -93 188 -163 257 -277 144 -242 192 -539 128 -802 -40
        -169 -91 -279 -183 -403 -201 -270 -505 -420 -854 -420 -252 0 -509 99 -713
        275 -70 60 -165 166 -165 183 0 5 -7 15 -15 22 -15 12 -23 27 -80 140 -33 67
        -63 154 -87 250 -8 35 -13 116 -13 225 1 154 3 180 28 270 114 415 428 701
        827 754 173 23 288 19 430 -15z"/>

        <!-- I -->
        <path d="M28055 2497 c-76 -25 -133 -69 -166 -128 -18 -31 -15 -638 7 -1574
        15 -629 15 -640 36 -662 26 -28 69 -30 92 -4 10 11 25 63 37 127 11 60 33 183
        50 274 16 91 45 248 64 350 19 102 48 262 65 355 17 94 47 256 66 360 19 105
        46 249 59 320 62 339 58 441 -22 517 -65 62 -202 93 -288 65z"/>

        <!-- D -->
        <path d="M29171 2482 c-55 -27 -75 -64 -81 -145 l-5 -72 -55 -15 c-73 -20 -97
        -35 -120 -73 -59 -96 36 -211 148 -181 l39 10 7 -395 c4 -218 9 -538 12 -711
        12 -686 15 -774 33 -794 22 -25 65 -46 96 -46 33 0 88 37 123 83 48 62 323
        387 352 415 15 15 76 86 136 157 59 72 158 189 219 260 120 140 178 236 213
        350 107 350 39 706 -176 921 -85 85 -157 124 -280 149 -104 21 -196 16 -322
        -19 -52 -14 -101 -24 -107 -21 -7 2 -13 14 -13 26 0 87 -129 146 -219 101z
        m604 -301 c167 -77 284 -308 285 -561 0 -72 -24 -219 -43 -262 -9 -18 -18 -43
        -22 -56 -4 -12 -25 -44 -47 -70 -23 -25 -123 -170 -224 -322 -219 -328 -330
        -490 -350 -510 -12 -12 -14 2 -14 110 0 69 5 230 10 359 5 129 10 453 10 720
        1 267 4 496 7 508 4 17 22 28 85 49 44 14 92 33 107 40 38 20 148 17 196 -5z"/>

        <!-- S -->
        <path d="M31429 2506 c-2 -2 -26 -7 -54 -10 -168 -19 -331 -94 -444 -205 -86
        -84 -130 -161 -155 -271 -56 -238 62 -480 311 -640 43 -28 83 -50 90 -50 6 0
        13 -4 15 -9 6 -16 237 -90 346 -111 117 -23 116 -23 216 -70 168 -81 279 -261
        263 -430 -12 -136 -133 -267 -296 -323 -94 -32 -264 -31 -346 3 -139 57 -186
        90 -269 193 -47 58 -105 90 -161 89 -84 -2 -150 -51 -178 -133 -12 -36 -13
        -54 -4 -99 7 -30 19 -64 27 -76 33 -45 223 -157 330 -194 36 -12 74 -26 85
        -30 78 -33 342 -54 450 -36 22 3 56 9 75 12 54 9 148 42 230 82 55 26 95 56
        152 112 234 233 226 562 -20 806 -59 58 -133 114 -151 114 -6 0 -11 4 -11 8 0
        11 -115 64 -200 92 -36 12 -74 26 -85 30 -20 9 -131 34 -195 45 -152 27 -322
        149 -382 275 -73 153 -52 301 59 414 59 59 111 91 206 123 64 22 84 24 177 20
        120 -6 205 -30 287 -84 58 -38 126 -104 151 -146 22 -37 100 -77 151 -77 90 0
        165 65 186 160 9 41 -13 129 -39 156 -54 55 -278 184 -321 184 -7 0 -17 5 -20
        10 -3 6 -16 10 -29 10 -12 0 -26 4 -31 9 -19 17 -174 42 -292 46 -66 3 -122 3
        -124 1z"/>
    </g>
</svg>
